PathFileType	4	(X/Y/Z)	3_coords_data.trc
DataRate	CameraRate	NumFrames	NumMarkers	Units	OrigDataRate	OrigDataStartFrame	OrigNumFrames
30.0	30.0	6	21	m	30.0	52	62
Frame#	Time	THUMB_TIP	THUMB_IP	THUMB_MCP	THUMB_CMC	INDEX_TIP	INDEX_DIP	INDEX_PIP	INDEX_MCP	MIDDLE_TIP	MIDDLE_DIP	MIDDLE_PIP	MIDDLE_MCP	RING_TIP	RING_DIP	RING_PIP	RING_MCP	PINKY_TIP	PINKY_DIP	PINKY_PIP	PINKY_MCP	WRIST
X1	Y1	Z1	X2	Y2	Z2	X3	Y3	Z3	X4	Y4	Z4	X5	Y5	Z5	X6	Y6	Z6	X7	Y7	Z7	X8	Y8	Z8	X9	Y9	Z9	X10	Y10	Z10	X11	Y11	Z11	X12	Y12	Z12	X13	Y13	Z13	X14	Y14	Z14	X15	Y15	Z15	X16	Y16	Z16	X17	Y17	Z17	X18	Y18	Z18	X19	Y19	Z19	X20	Y20	Z20	X21	Y21	Z21
51	1.7	-0.07080860137939453	-0.07814640045166016	0.9283359985351562	-0.08639119720458985	-0.07456500244140625	0.9517490234375	-0.09966139984130859	-0.06750659942626953	0.979718017578125	-0.1133209991455078	-0.04333449935913086	1.0016799926757813	-0.0690105972290039	-0.05018999862670898	0.881156005859375	-0.08614440155029297	-0.05425830078125	0.89618798828125	-0.10334999847412109	-0.057258800506591795	0.913843017578125	-0.12383300018310547	-0.058415699005126956	0.9485609741210937	-0.07482499694824218	-0.032319400787353514	0.8712979736328125	-0.09221939849853515	-0.034356998443603515	0.8863159790039062	-0.11145600128173828	-0.036629501342773436	0.9077830200195313	-0.13114100646972657	-0.03743389892578125	0.9455789794921875	-0.08257150268554687	-0.00897467041015625	0.8859180297851562	-0.1002509994506836	-0.011240200042724609	0.8967340087890625	-0.12002100372314453	-0.014888199806213379	0.9136719970703125	-0.13393099975585937	-0.01772559928894043	0.9500809936523438	-0.0956613998413086	0.011496100425720215	0.9008629760742187	-0.10930699920654297	0.009303009986877442	0.9148270263671875	-0.12113600158691407	0.00609896993637085	0.9299329833984376	-0.1311269989013672	0.001219930052757263	0.9567579956054687	-0.14186099243164063	-0.024312299728393556	1.0261099853515625
52	1.7333333333333334	-0.07064070129394531	-0.07888829803466797	0.9286270141601562	-0.08605390167236328	-0.07499849700927734	0.9518880004882813	-0.09941560363769532	-0.067981201171875	0.979676025390625	-0.1129749984741211	-0.043571701049804686	1.0018099975585937	-0.06809100341796875	-0.04970349884033203	0.8802999877929687	-0.08482769775390625	-0.05372900009155274	0.8958629760742187	-0.10172899627685547	-0.05661959838867187	0.9136699829101562	-0.12228800201416015	-0.057892601013183595	0.948010009765625	-0.07377310180664062	-0.03116270065307617	0.8704910278320312	-0.09073549652099609	-0.033238700866699215	0.8861710205078125	-0.11001200103759766	-0.03568230056762695	0.9080130004882813	-0.12948800659179688	-0.03668880081176758	0.9450770263671875	-0.0811259002685547	-0.007731480121612549	0.8856729736328125	-0.09865480041503906	-0.010121100425720215	0.8966680297851563	-0.1183470001220703	-0.013945599555969239	0.9137559814453124	-0.13275300598144532	-0.017127099990844726	0.9501170043945313	-0.0941144027709961	0.012706600189208984	0.9014019775390625	-0.10781300354003906	0.010341099739074707	0.915052001953125	-0.11960099792480469	0.006900410175323487	0.9303060302734375	-0.1301629943847656	0.0016433900594711298	0.9568090209960938	-0.1408999938964844	-0.024675100326538087	1.0262099609375
53	1.7666666666666666	-0.07042949676513671	-0.07902829742431641	0.9285960083007813	-0.08601699829101563	-0.07505760192871094	0.9518619995117188	-0.09928589630126954	-0.06817430114746094	0.979572998046875	-0.11268299865722656	-0.043890201568603515	1.0018200073242187	-0.06650150299072266	-0.04870579910278321	0.8804760131835937	-0.08336199951171876	-0.05281840133666992	0.8957960205078125	-0.1002040023803711	-0.05579280090332031	0.9137650146484375	-0.12108699798583984	-0.05711429977416992	0.9481110229492188	-0.07238009643554688	-0.029629499435424804	0.8704840087890625	-0.08930750274658203	-0.03196680068969727	0.8863369750976563	-0.10853700256347656	-0.034586898803710936	0.9081669921875	-0.1280850067138672	-0.036091800689697265	0.9453109741210938	-0.07957479858398438	-0.006330999851226806	0.88610498046875	-0.09734359741210938	-0.008853469848632813	0.8970239868164063	-0.11702200317382813	-0.01292080020904541	0.9140969848632813	-0.13201400756835938	-0.016551300048828124	0.9501300048828125	-0.09253240203857421	0.014112000465393066	0.9022570190429687	-0.10643699645996094	0.011536399841308593	0.9157440185546875	-0.11849400329589843	0.00780994987487793	0.93077001953125	-0.12935000610351563	0.002163389921188354	0.9571799926757812	-0.14027999877929687	-0.024777700424194336	1.025260009765625
54	1.8	-0.070385498046875	-0.07884320068359375	0.9283289794921875	-0.08577580261230469	-0.07485540008544922	0.9515579833984374	-0.09931600189208985	-0.0679572982788086	0.9794849853515625	-0.11236100006103515	-0.043901699066162106	1.0018900146484375	-0.06542330169677735	-0.047144599914550785	0.8805819702148437	-0.08234750366210937	-0.05151160049438477	0.8957410278320312	-0.099310302734375	-0.0547672004699707	0.9134970092773438	-0.12018199920654297	-0.056515899658203125	0.9472410278320312	-0.07109500122070313	-0.02776810073852539	0.8708410034179688	-0.08827890014648437	-0.030394800186157228	0.8863690185546875	-0.10766400146484376	-0.03342079925537109	0.9080029907226562	-0.12720800018310546	-0.03527679824829102	0.945198974609375	-0.07823090362548828	-0.00464330005645752	0.8872880249023437	-0.09595819854736329	-0.007319159984588623	0.8976580200195312	-0.11591899871826172	-0.01152970027923584	0.9144710083007812	-0.1307969970703125	-0.01582950019836426	0.9502230224609375	-0.09102459716796875	0.015686200141906737	0.9034039916992187	-0.10517400360107422	0.012895000457763673	0.9165750122070313	-0.11751300048828126	0.008929059982299805	0.9313250122070312	-0.12854299926757812	0.002832089900970459	0.9573489990234375	-0.14060699462890625	-0.02470590019226074	1.0255400390625
55	1.8333333333333333	-0.07080690002441406	-0.07840650177001954	0.9276129760742188	-0.08611589813232422	-0.0744801025390625	0.95097900390625	-0.09935250091552734	-0.06769979858398438	0.9790469970703125	-0.11210900115966797	-0.043744598388671875	1.0017100219726562	-0.06510800170898437	-0.04561330032348633	0.88064599609375	-0.08231580352783203	-0.050142601013183595	0.8955599975585937	-0.09943689727783203	-0.053639198303222654	0.9131669921875	-0.11967400360107422	-0.05578770065307617	0.9472899780273437	-0.07053520202636719	-0.02572640037536621	0.871344970703125	-0.08789309692382813	-0.02864229965209961	0.88643798828125	-0.10755899810791016	-0.03201599884033203	0.9078259887695312	-0.1268499984741211	-0.034493999481201174	0.9449959716796875	-0.07726490020751953	-0.0029184000492095937	0.8882559814453125	-0.09531069946289063	-0.005659619808197022	0.8983179931640625	-0.11560299682617188	-0.010077400207519531	0.9144990234375	-0.13041600036621093	-0.015176600456237792	0.9503790283203125	-0.08961479949951172	0.017002799987792968	0.9044949951171875	-0.10415599822998046	0.014177900314331054	0.9173909912109375	-0.11673999786376953	0.010033900260925294	0.931927978515625	-0.12826400756835937	0.003344409942626953	0.9577329711914062	-0.1404040069580078	-0.024598100662231445	1.0256400146484375
56	1.8666666666666667	-0.0718760986328125	-0.07809220123291015	0.9269520263671875	-0.0867426986694336	-0.07408100128173828	0.9501799926757812	-0.09955860137939453	-0.06742549896240234	0.9784390258789063	-0.11202799987792969	-0.04356449890136719	1.0014600219726562	-0.06528949737548828	-0.044211200714111325	0.8809949951171875	-0.08287300109863281	-0.04895840072631836	0.8952960205078125	-0.10018099975585938	-0.052676498413085936	0.9126129760742188	-0.12030100250244141	-0.05515290069580078	0.947198974609375	-0.0701720962524414	-0.024176700592041016	0.871958984375	-0.08786849975585938	-0.027301000595092773	0.8866790161132813	-0.10750399780273437	-0.030991300582885743	0.9080020141601562	-0.12713999938964843	-0.033787300109863284	0.9450029907226563	-0.07664209747314453	-0.001643880009651184	0.8892769775390625	-0.09509829711914063	-0.004282159805297852	0.8989660034179687	-0.1156780014038086	-0.008863699913024903	0.9148389892578125	-0.1306510009765625	-0.01450189971923828	0.9504010009765625	-0.08847820281982421	0.017728900909423827	0.9054420166015625	-0.10337899780273438	0.01497939968109131	0.9179819946289063	-0.11628199768066406	0.010836199760437011	0.9321069946289062	-0.1280780029296875	0.003944979906082153	0.9579359741210938	-0.1398159942626953	-0.02443000030517578	1.0256400146484375
